<svg width="36" height="36" viewBox="0 0 36 36" fill="none" xmlns="http://www.w3.org/2000/svg">
<rect x="0.699219" y="0.5" width="34.2" height="34.2" rx="17.1" fill="white" fill-opacity="0.99"/>
<rect x="0.699219" y="0.5" width="34.2" height="34.2" rx="17.1" stroke="white"/>
<path d="M24.1331 14.34C24.7581 13.8712 25.3206 13.3087 25.7581 12.6525C25.1956 12.9025 24.5393 13.09 23.8831 13.1525C24.5706 12.7462 25.0706 12.1212 25.3206 11.34C24.6956 11.715 23.9768 11.9962 23.2581 12.1525C22.6331 11.4962 21.7893 11.1212 20.8518 11.1212C19.0393 11.1212 17.5706 12.59 17.5706 14.4025C17.5706 14.6525 17.6018 14.9025 17.6643 15.1525C14.9456 14.9962 12.5081 13.6837 10.8831 11.715C10.6018 12.1837 10.4456 12.7462 10.4456 13.3712C10.4456 14.4962 11.0081 15.4962 11.9143 16.09C11.3831 16.0587 10.8518 15.9337 10.4143 15.6837V15.715C10.4143 17.3087 11.5393 18.6212 13.0393 18.9337C12.7893 18.9962 12.4768 19.0587 12.1956 19.0587C11.9768 19.0587 11.7893 19.0275 11.5706 18.9962C11.9768 20.3087 13.1956 21.2462 14.6331 21.2775C13.5081 22.1525 12.1018 22.6837 10.5706 22.6837C10.2893 22.6837 10.0393 22.6525 9.78931 22.6212C11.2268 23.5587 12.9456 24.09 14.8206 24.09C20.8518 24.09 24.1331 19.1212 24.1331 14.7775C24.1331 14.6212 24.1331 14.4962 24.1331 14.34Z" fill="#2AA7FF"/>
</svg>
