<svg width="134" height="27" viewBox="0 0 134 27" fill="none" xmlns="http://www.w3.org/2000/svg">
<path d="M19.1667 2H3.83333C1.71624 2 0 3.71766 0 5.8365V21.1825C0 23.3014 1.71624 25.019 3.83333 25.019H19.1667C21.2838 25.019 23 23.3014 23 21.1825V5.8365C23 3.71766 21.2838 2 19.1667 2Z" fill="#2AA8FF"/>
<path fill-rule="evenodd" clip-rule="evenodd" d="M5.8626 9.83005C7.90469 9.8023 9.76526 9.02253 11.1804 7.75488C12.5955 9.02253 14.4561 9.8023 16.4982 9.83005C16.5724 10.2721 16.611 10.7263 16.611 11.1895C16.611 14.7392 14.3442 17.759 11.1804 18.8782C8.01656 17.759 5.74985 14.7392 5.74985 11.1895C5.74985 10.7263 5.78845 10.2721 5.8626 9.83005ZM13.6686 12.321C13.9181 12.0713 13.9181 11.6665 13.6686 11.4168C13.4191 11.1671 13.0146 11.1671 12.7651 11.4168L10.5016 13.6822L9.5957 12.7755C9.34622 12.5258 8.94167 12.5258 8.69219 12.7755C8.4427 13.0252 8.4427 13.4301 8.69219 13.6798L10.0498 15.0385C10.2993 15.2882 10.7039 15.2882 10.9533 15.0385L13.6686 12.321Z" fill="white"/>
<path d="M27.594 13.664C27.594 12.416 27.864 11.306 28.404 10.334C28.944 9.35 29.694 8.588 30.654 8.048C31.626 7.496 32.724 7.22 33.948 7.22C35.448 7.22 36.732 7.616 37.8 8.408C38.868 9.2 39.582 10.28 39.942 11.648H36.558C36.306 11.12 35.946 10.718 35.478 10.442C35.022 10.166 34.5 10.028 33.912 10.028C32.964 10.028 32.196 10.358 31.608 11.018C31.02 11.678 30.726 12.56 30.726 13.664C30.726 14.768 31.02 15.65 31.608 16.31C32.196 16.97 32.964 17.3 33.912 17.3C34.5 17.3 35.022 17.162 35.478 16.886C35.946 16.61 36.306 16.208 36.558 15.68H39.942C39.582 17.048 38.868 18.128 37.8 18.92C36.732 19.7 35.448 20.09 33.948 20.09C32.724 20.09 31.626 19.82 30.654 19.28C29.694 18.728 28.944 17.966 28.404 16.994C27.864 16.022 27.594 14.912 27.594 13.664ZM41.5749 14.96C41.5749 13.928 41.7669 13.022 42.1509 12.242C42.5469 11.462 43.0809 10.862 43.7529 10.442C44.4249 10.022 45.1749 9.812 46.0029 9.812C46.7109 9.812 47.3289 9.956 47.8569 10.244C48.3969 10.532 48.8109 10.91 49.0989 11.378V9.956H52.1769V20H49.0989V18.578C48.7989 19.046 48.3789 19.424 47.8389 19.712C47.3109 20 46.6929 20.144 45.9849 20.144C45.1689 20.144 44.4249 19.934 43.7529 19.514C43.0809 19.082 42.5469 18.476 42.1509 17.696C41.7669 16.904 41.5749 15.992 41.5749 14.96ZM49.0989 14.978C49.0989 14.21 48.8829 13.604 48.4509 13.16C48.0309 12.716 47.5149 12.494 46.9029 12.494C46.2909 12.494 45.7689 12.716 45.3369 13.16C44.9169 13.592 44.7069 14.192 44.7069 14.96C44.7069 15.728 44.9169 16.34 45.3369 16.796C45.7689 17.24 46.2909 17.462 46.9029 17.462C47.5149 17.462 48.0309 17.24 48.4509 16.796C48.8829 16.352 49.0989 15.746 49.0989 14.978ZM57.8417 11.63C58.2017 11.078 58.6517 10.646 59.1917 10.334C59.7317 10.01 60.3317 9.848 60.9917 9.848V13.106H60.1457C59.3777 13.106 58.8017 13.274 58.4177 13.61C58.0337 13.934 57.8417 14.51 57.8417 15.338V20H54.7637V9.956H57.8417V11.63ZM72.291 14.816C72.291 15.104 72.273 15.404 72.237 15.716H65.271C65.319 16.34 65.517 16.82 65.865 17.156C66.225 17.48 66.663 17.642 67.179 17.642C67.947 17.642 68.481 17.318 68.781 16.67H72.057C71.889 17.33 71.583 17.924 71.139 18.452C70.707 18.98 70.161 19.394 69.501 19.694C68.841 19.994 68.103 20.144 67.287 20.144C66.303 20.144 65.427 19.934 64.659 19.514C63.891 19.094 63.291 18.494 62.859 17.714C62.427 16.934 62.211 16.022 62.211 14.978C62.211 13.934 62.421 13.022 62.841 12.242C63.273 11.462 63.873 10.862 64.641 10.442C65.409 10.022 66.291 9.812 67.287 9.812C68.259 9.812 69.123 10.016 69.879 10.424C70.635 10.832 71.223 11.414 71.643 12.17C72.075 12.926 72.291 13.808 72.291 14.816ZM69.141 14.006C69.141 13.478 68.961 13.058 68.601 12.746C68.241 12.434 67.791 12.278 67.251 12.278C66.735 12.278 66.297 12.428 65.937 12.728C65.589 13.028 65.373 13.454 65.289 14.006H69.141Z" fill="#2AA8FF"/>
<path d="M82.5007 7.364V9.83H77.3527V12.494H81.2047V14.888H77.3527V20H74.2747V7.364H82.5007ZM86.0265 8.912C85.4865 8.912 85.0425 8.756 84.6945 8.444C84.3585 8.12 84.1905 7.724 84.1905 7.256C84.1905 6.776 84.3585 6.38 84.6945 6.068C85.0425 5.744 85.4865 5.582 86.0265 5.582C86.5545 5.582 86.9865 5.744 87.3225 6.068C87.6705 6.38 87.8445 6.776 87.8445 7.256C87.8445 7.724 87.6705 8.12 87.3225 8.444C86.9865 8.756 86.5545 8.912 86.0265 8.912ZM87.5565 9.956V20H84.4785V9.956H87.5565ZM96.2671 9.848C97.4431 9.848 98.3791 10.232 99.0751 11C99.7831 11.756 100.137 12.8 100.137 14.132V20H97.0771V14.546C97.0771 13.874 96.9031 13.352 96.5551 12.98C96.2071 12.608 95.7391 12.422 95.1511 12.422C94.5631 12.422 94.0951 12.608 93.7471 12.98C93.3991 13.352 93.2251 13.874 93.2251 14.546V20H90.1471V9.956H93.2251V11.288C93.5371 10.844 93.9571 10.496 94.4851 10.244C95.0131 9.98 95.6071 9.848 96.2671 9.848ZM102.024 14.96C102.024 13.928 102.216 13.022 102.6 12.242C102.996 11.462 103.53 10.862 104.202 10.442C104.874 10.022 105.624 9.812 106.452 9.812C107.112 9.812 107.712 9.95 108.252 10.226C108.804 10.502 109.236 10.874 109.548 11.342V6.68H112.626V20H109.548V18.56C109.26 19.04 108.846 19.424 108.306 19.712C107.778 20 107.16 20.144 106.452 20.144C105.624 20.144 104.874 19.934 104.202 19.514C103.53 19.082 102.996 18.476 102.6 17.696C102.216 16.904 102.024 15.992 102.024 14.96ZM109.548 14.978C109.548 14.21 109.332 13.604 108.9 13.16C108.48 12.716 107.964 12.494 107.352 12.494C106.74 12.494 106.218 12.716 105.786 13.16C105.366 13.592 105.156 14.192 105.156 14.96C105.156 15.728 105.366 16.34 105.786 16.796C106.218 17.24 106.74 17.462 107.352 17.462C107.964 17.462 108.48 17.24 108.9 16.796C109.332 16.352 109.548 15.746 109.548 14.978ZM124.681 14.816C124.681 15.104 124.663 15.404 124.627 15.716H117.661C117.709 16.34 117.907 16.82 118.255 17.156C118.615 17.48 119.053 17.642 119.569 17.642C120.337 17.642 120.871 17.318 121.171 16.67H124.447C124.279 17.33 123.973 17.924 123.529 18.452C123.097 18.98 122.551 19.394 121.891 19.694C121.231 19.994 120.493 20.144 119.677 20.144C118.693 20.144 117.817 19.934 117.049 19.514C116.281 19.094 115.681 18.494 115.249 17.714C114.817 16.934 114.601 16.022 114.601 14.978C114.601 13.934 114.811 13.022 115.231 12.242C115.663 11.462 116.263 10.862 117.031 10.442C117.799 10.022 118.681 9.812 119.677 9.812C120.649 9.812 121.513 10.016 122.269 10.424C123.025 10.832 123.613 11.414 124.033 12.17C124.465 12.926 124.681 13.808 124.681 14.816ZM121.531 14.006C121.531 13.478 121.351 13.058 120.991 12.746C120.631 12.434 120.181 12.278 119.641 12.278C119.125 12.278 118.687 12.428 118.327 12.728C117.979 13.028 117.763 13.454 117.679 14.006H121.531ZM129.743 11.63C130.103 11.078 130.553 10.646 131.093 10.334C131.633 10.01 132.233 9.848 132.893 9.848V13.106H132.047C131.279 13.106 130.703 13.274 130.319 13.61C129.935 13.934 129.743 14.51 129.743 15.338V20H126.665V9.956H129.743V11.63Z" fill="#FF832A"/>
</svg>
